<mxfile host="app.diagrams.net" modified="2023-05-13T21:20:58.245Z" agent="Mozilla/5.0 (Windows NT 10.0; Win64; x64) AppleWebKit/537.36 (KHTML, like Gecko) Chrome/111.0.0.0 Safari/537.36 OPR/97.0.0.0" etag="ov4TWw2EfqiWC5QZvKFs" version="21.2.9" type="github">
  <diagram name="Página-1" id="bnr48KtmNe2BLuCu2KkL">
    <mxGraphModel dx="839" dy="492" grid="1" gridSize="10" guides="1" tooltips="1" connect="1" arrows="1" fold="1" page="1" pageScale="1" pageWidth="827" pageHeight="1169" math="0" shadow="0">
      <root>
        <mxCell id="0" />
        <mxCell id="1" parent="0" />
        <mxCell id="CKqWZd-cSWZV2FJ3GJAT-3" style="edgeStyle=orthogonalEdgeStyle;rounded=0;orthogonalLoop=1;jettySize=auto;html=1;exitX=0.5;exitY=1;exitDx=0;exitDy=0;" parent="1" source="CKqWZd-cSWZV2FJ3GJAT-1" target="CKqWZd-cSWZV2FJ3GJAT-2" edge="1">
          <mxGeometry relative="1" as="geometry" />
        </mxCell>
        <mxCell id="CKqWZd-cSWZV2FJ3GJAT-1" value="&lt;font style=&quot;font-size: 18px;&quot;&gt;Dispositivos Entrada/Salida&lt;/font&gt;" style="rounded=0;whiteSpace=wrap;html=1;fillColor=#a20025;strokeColor=#6F0000;fontColor=#ffffff;" parent="1" vertex="1">
          <mxGeometry x="220" y="30" width="270" height="50" as="geometry" />
        </mxCell>
        <mxCell id="CKqWZd-cSWZV2FJ3GJAT-50" style="edgeStyle=orthogonalEdgeStyle;rounded=0;orthogonalLoop=1;jettySize=auto;html=1;exitX=0;exitY=0.5;exitDx=0;exitDy=0;" parent="1" source="CKqWZd-cSWZV2FJ3GJAT-2" target="CKqWZd-cSWZV2FJ3GJAT-49" edge="1">
          <mxGeometry relative="1" as="geometry" />
        </mxCell>
        <mxCell id="CKqWZd-cSWZV2FJ3GJAT-77" style="edgeStyle=orthogonalEdgeStyle;rounded=0;orthogonalLoop=1;jettySize=auto;html=1;exitX=1;exitY=0.5;exitDx=0;exitDy=0;entryX=0;entryY=0.5;entryDx=0;entryDy=0;" parent="1" source="CKqWZd-cSWZV2FJ3GJAT-2" target="CKqWZd-cSWZV2FJ3GJAT-35" edge="1">
          <mxGeometry relative="1" as="geometry" />
        </mxCell>
        <mxCell id="CKqWZd-cSWZV2FJ3GJAT-78" style="edgeStyle=orthogonalEdgeStyle;rounded=0;orthogonalLoop=1;jettySize=auto;html=1;exitX=1;exitY=0.5;exitDx=0;exitDy=0;entryX=0;entryY=0.5;entryDx=0;entryDy=0;" parent="1" source="CKqWZd-cSWZV2FJ3GJAT-2" target="CKqWZd-cSWZV2FJ3GJAT-10" edge="1">
          <mxGeometry relative="1" as="geometry" />
        </mxCell>
        <mxCell id="CKqWZd-cSWZV2FJ3GJAT-79" style="edgeStyle=orthogonalEdgeStyle;rounded=0;orthogonalLoop=1;jettySize=auto;html=1;exitX=1;exitY=0.5;exitDx=0;exitDy=0;entryX=0;entryY=0.5;entryDx=0;entryDy=0;" parent="1" source="CKqWZd-cSWZV2FJ3GJAT-2" target="CKqWZd-cSWZV2FJ3GJAT-29" edge="1">
          <mxGeometry relative="1" as="geometry" />
        </mxCell>
        <mxCell id="CKqWZd-cSWZV2FJ3GJAT-80" style="edgeStyle=orthogonalEdgeStyle;rounded=0;orthogonalLoop=1;jettySize=auto;html=1;exitX=0.5;exitY=1;exitDx=0;exitDy=0;entryX=0.5;entryY=0;entryDx=0;entryDy=0;" parent="1" source="CKqWZd-cSWZV2FJ3GJAT-2" target="CKqWZd-cSWZV2FJ3GJAT-4" edge="1">
          <mxGeometry relative="1" as="geometry" />
        </mxCell>
        <mxCell id="CKqWZd-cSWZV2FJ3GJAT-81" style="edgeStyle=orthogonalEdgeStyle;rounded=0;orthogonalLoop=1;jettySize=auto;html=1;exitX=0.5;exitY=1;exitDx=0;exitDy=0;entryX=0.5;entryY=0;entryDx=0;entryDy=0;" parent="1" source="CKqWZd-cSWZV2FJ3GJAT-2" target="CKqWZd-cSWZV2FJ3GJAT-58" edge="1">
          <mxGeometry relative="1" as="geometry">
            <Array as="points">
              <mxPoint x="355" y="270" />
              <mxPoint x="135" y="270" />
            </Array>
          </mxGeometry>
        </mxCell>
        <mxCell id="CKqWZd-cSWZV2FJ3GJAT-82" style="edgeStyle=orthogonalEdgeStyle;rounded=0;orthogonalLoop=1;jettySize=auto;html=1;exitX=0.5;exitY=1;exitDx=0;exitDy=0;entryX=0.5;entryY=0;entryDx=0;entryDy=0;" parent="1" source="CKqWZd-cSWZV2FJ3GJAT-2" target="CKqWZd-cSWZV2FJ3GJAT-52" edge="1">
          <mxGeometry relative="1" as="geometry">
            <Array as="points">
              <mxPoint x="355" y="270" />
              <mxPoint x="610" y="270" />
            </Array>
          </mxGeometry>
        </mxCell>
        <mxCell id="CKqWZd-cSWZV2FJ3GJAT-2" value="&lt;font style=&quot;font-size: 15px;&quot;&gt;Clasificaciones&lt;/font&gt;" style="rounded=0;whiteSpace=wrap;html=1;fillColor=#fad7ac;strokeColor=#b46504;" parent="1" vertex="1">
          <mxGeometry x="270" y="130" width="170" height="40" as="geometry" />
        </mxCell>
        <mxCell id="CKqWZd-cSWZV2FJ3GJAT-83" style="edgeStyle=orthogonalEdgeStyle;rounded=0;orthogonalLoop=1;jettySize=auto;html=1;exitX=0.5;exitY=1;exitDx=0;exitDy=0;" parent="1" source="CKqWZd-cSWZV2FJ3GJAT-4" target="CKqWZd-cSWZV2FJ3GJAT-6" edge="1">
          <mxGeometry relative="1" as="geometry" />
        </mxCell>
        <mxCell id="CKqWZd-cSWZV2FJ3GJAT-84" style="edgeStyle=orthogonalEdgeStyle;rounded=0;orthogonalLoop=1;jettySize=auto;html=1;exitX=0.5;exitY=1;exitDx=0;exitDy=0;entryX=0.5;entryY=0;entryDx=0;entryDy=0;" parent="1" source="CKqWZd-cSWZV2FJ3GJAT-4" target="CKqWZd-cSWZV2FJ3GJAT-8" edge="1">
          <mxGeometry relative="1" as="geometry" />
        </mxCell>
        <mxCell id="CKqWZd-cSWZV2FJ3GJAT-4" value="&lt;font style=&quot;font-size: 15px;&quot;&gt;Modo de transferencia de datos&lt;/font&gt;" style="rounded=0;whiteSpace=wrap;html=1;fillColor=#d5e8d4;strokeColor=#82b366;" parent="1" vertex="1">
          <mxGeometry x="270" y="290" width="170" height="40" as="geometry" />
        </mxCell>
        <mxCell id="CKqWZd-cSWZV2FJ3GJAT-6" value="&lt;font style=&quot;font-size: 13px;&quot;&gt;Carácter&lt;/font&gt;" style="rounded=0;whiteSpace=wrap;html=1;fillColor=#d5e8d4;strokeColor=#82b366;" parent="1" vertex="1">
          <mxGeometry x="280" y="380" width="60" height="30" as="geometry" />
        </mxCell>
        <mxCell id="CKqWZd-cSWZV2FJ3GJAT-8" value="&lt;font style=&quot;font-size: 13px;&quot;&gt;Bloque&lt;/font&gt;" style="rounded=0;whiteSpace=wrap;html=1;fillColor=#d5e8d4;strokeColor=#82b366;" parent="1" vertex="1">
          <mxGeometry x="380" y="380" width="60" height="30" as="geometry" />
        </mxCell>
        <mxCell id="CKqWZd-cSWZV2FJ3GJAT-22" style="edgeStyle=orthogonalEdgeStyle;rounded=0;orthogonalLoop=1;jettySize=auto;html=1;exitX=1;exitY=0.5;exitDx=0;exitDy=0;entryX=0;entryY=0.5;entryDx=0;entryDy=0;" parent="1" source="CKqWZd-cSWZV2FJ3GJAT-10" target="CKqWZd-cSWZV2FJ3GJAT-18" edge="1">
          <mxGeometry relative="1" as="geometry" />
        </mxCell>
        <mxCell id="CKqWZd-cSWZV2FJ3GJAT-24" style="edgeStyle=orthogonalEdgeStyle;rounded=0;orthogonalLoop=1;jettySize=auto;html=1;exitX=1;exitY=0.5;exitDx=0;exitDy=0;entryX=0;entryY=0.5;entryDx=0;entryDy=0;" parent="1" source="CKqWZd-cSWZV2FJ3GJAT-10" target="CKqWZd-cSWZV2FJ3GJAT-19" edge="1">
          <mxGeometry relative="1" as="geometry" />
        </mxCell>
        <mxCell id="CKqWZd-cSWZV2FJ3GJAT-10" value="&lt;font style=&quot;font-size: 14px;&quot;&gt;Método de acceso&lt;/font&gt;" style="rounded=0;whiteSpace=wrap;html=1;" parent="1" vertex="1">
          <mxGeometry x="490" y="165" width="170" height="40" as="geometry" />
        </mxCell>
        <mxCell id="CKqWZd-cSWZV2FJ3GJAT-18" value="&lt;font style=&quot;font-size: 13px;&quot;&gt;Secuencial&lt;/font&gt;" style="rounded=0;whiteSpace=wrap;html=1;" parent="1" vertex="1">
          <mxGeometry x="700" y="150" width="80" height="30" as="geometry" />
        </mxCell>
        <mxCell id="CKqWZd-cSWZV2FJ3GJAT-19" value="&lt;font style=&quot;font-size: 13px;&quot;&gt;Aleatorio&lt;/font&gt;" style="rounded=0;whiteSpace=wrap;html=1;" parent="1" vertex="1">
          <mxGeometry x="700" y="180" width="60" height="20" as="geometry" />
        </mxCell>
        <mxCell id="CKqWZd-cSWZV2FJ3GJAT-33" style="edgeStyle=orthogonalEdgeStyle;rounded=0;orthogonalLoop=1;jettySize=auto;html=1;exitX=1;exitY=0.5;exitDx=0;exitDy=0;entryX=0;entryY=0.5;entryDx=0;entryDy=0;" parent="1" source="CKqWZd-cSWZV2FJ3GJAT-29" target="CKqWZd-cSWZV2FJ3GJAT-31" edge="1">
          <mxGeometry relative="1" as="geometry" />
        </mxCell>
        <mxCell id="CKqWZd-cSWZV2FJ3GJAT-34" style="edgeStyle=orthogonalEdgeStyle;rounded=0;orthogonalLoop=1;jettySize=auto;html=1;exitX=1;exitY=0.5;exitDx=0;exitDy=0;entryX=0;entryY=0.5;entryDx=0;entryDy=0;" parent="1" source="CKqWZd-cSWZV2FJ3GJAT-29" target="CKqWZd-cSWZV2FJ3GJAT-32" edge="1">
          <mxGeometry relative="1" as="geometry" />
        </mxCell>
        <mxCell id="CKqWZd-cSWZV2FJ3GJAT-29" value="&lt;font style=&quot;font-size: 14px;&quot;&gt;Forma de transferencia&lt;/font&gt;" style="rounded=0;whiteSpace=wrap;html=1;" parent="1" vertex="1">
          <mxGeometry x="490" y="220" width="170" height="40" as="geometry" />
        </mxCell>
        <mxCell id="CKqWZd-cSWZV2FJ3GJAT-31" value="&lt;font style=&quot;font-size: 13px;&quot;&gt;Sincrónico&lt;/font&gt;" style="rounded=0;whiteSpace=wrap;html=1;" parent="1" vertex="1">
          <mxGeometry x="700" y="210" width="80" height="30" as="geometry" />
        </mxCell>
        <mxCell id="CKqWZd-cSWZV2FJ3GJAT-32" value="&lt;font style=&quot;font-size: 13px;&quot;&gt;Asincrónico&lt;/font&gt;" style="rounded=0;whiteSpace=wrap;html=1;" parent="1" vertex="1">
          <mxGeometry x="700" y="240" width="80" height="30" as="geometry" />
        </mxCell>
        <mxCell id="CKqWZd-cSWZV2FJ3GJAT-73" style="edgeStyle=orthogonalEdgeStyle;rounded=0;orthogonalLoop=1;jettySize=auto;html=1;exitX=0.5;exitY=0;exitDx=0;exitDy=0;entryX=0.5;entryY=1;entryDx=0;entryDy=0;" parent="1" source="CKqWZd-cSWZV2FJ3GJAT-35" target="CKqWZd-cSWZV2FJ3GJAT-40" edge="1">
          <mxGeometry relative="1" as="geometry" />
        </mxCell>
        <mxCell id="CKqWZd-cSWZV2FJ3GJAT-74" style="edgeStyle=orthogonalEdgeStyle;rounded=0;orthogonalLoop=1;jettySize=auto;html=1;exitX=1;exitY=0.5;exitDx=0;exitDy=0;entryX=0;entryY=0.5;entryDx=0;entryDy=0;" parent="1" source="CKqWZd-cSWZV2FJ3GJAT-35" target="CKqWZd-cSWZV2FJ3GJAT-39" edge="1">
          <mxGeometry relative="1" as="geometry" />
        </mxCell>
        <mxCell id="CKqWZd-cSWZV2FJ3GJAT-35" value="&lt;font style=&quot;font-size: 14px;&quot;&gt;Compartición&lt;/font&gt;" style="rounded=0;whiteSpace=wrap;html=1;" parent="1" vertex="1">
          <mxGeometry x="490" y="110" width="120" height="40" as="geometry" />
        </mxCell>
        <mxCell id="CKqWZd-cSWZV2FJ3GJAT-39" value="&lt;font style=&quot;font-size: 13px;&quot;&gt;Dedicado&lt;/font&gt;" style="rounded=0;whiteSpace=wrap;html=1;" parent="1" vertex="1">
          <mxGeometry x="680" y="115" width="80" height="30" as="geometry" />
        </mxCell>
        <mxCell id="CKqWZd-cSWZV2FJ3GJAT-75" style="edgeStyle=orthogonalEdgeStyle;rounded=0;orthogonalLoop=1;jettySize=auto;html=1;exitX=1;exitY=0.5;exitDx=0;exitDy=0;entryX=0;entryY=0.5;entryDx=0;entryDy=0;" parent="1" source="CKqWZd-cSWZV2FJ3GJAT-40" target="CKqWZd-cSWZV2FJ3GJAT-45" edge="1">
          <mxGeometry relative="1" as="geometry" />
        </mxCell>
        <mxCell id="CKqWZd-cSWZV2FJ3GJAT-40" value="&lt;font style=&quot;font-size: 13px;&quot;&gt;Compartido&lt;/font&gt;" style="rounded=0;whiteSpace=wrap;html=1;" parent="1" vertex="1">
          <mxGeometry x="510" y="50" width="80" height="30" as="geometry" />
        </mxCell>
        <mxCell id="CKqWZd-cSWZV2FJ3GJAT-45" value="&lt;font style=&quot;font-size: 12px;&quot;&gt;Varios usuarios lo utilizan al mismo tiempo&lt;/font&gt;" style="rounded=0;whiteSpace=wrap;html=1;" parent="1" vertex="1">
          <mxGeometry x="650" y="30" width="80" height="70" as="geometry" />
        </mxCell>
        <mxCell id="CKqWZd-cSWZV2FJ3GJAT-49" value="&lt;div style=&quot;font-size: 14px;&quot;&gt;&lt;u style=&quot;&quot;&gt;&lt;font style=&quot;font-size: 14px;&quot;&gt;Dispositivos de:&lt;/font&gt;&lt;/u&gt;&lt;/div&gt;&lt;ul style=&quot;font-size: 14px;&quot;&gt;&lt;li style=&quot;text-align: left;&quot;&gt;&lt;font style=&quot;font-size: 14px;&quot;&gt;Almacenamiento&lt;/font&gt;&lt;/li&gt;&lt;li style=&quot;text-align: left;&quot;&gt;&lt;font style=&quot;font-size: 14px;&quot;&gt;Transmisión&amp;nbsp;&lt;/font&gt;&lt;/li&gt;&lt;li style=&quot;text-align: left;&quot;&gt;&lt;font style=&quot;font-size: 14px;&quot;&gt;Interfaz Humana&lt;/font&gt;&lt;/li&gt;&lt;li style=&quot;text-align: left;&quot;&gt;&lt;font style=&quot;font-size: 14px;&quot;&gt;Especializados&lt;/font&gt;&lt;/li&gt;&lt;/ul&gt;" style="rounded=0;whiteSpace=wrap;html=1;" parent="1" vertex="1">
          <mxGeometry x="40" y="87.5" width="155" height="125" as="geometry" />
        </mxCell>
        <mxCell id="CKqWZd-cSWZV2FJ3GJAT-69" style="edgeStyle=orthogonalEdgeStyle;rounded=0;orthogonalLoop=1;jettySize=auto;html=1;exitX=0.5;exitY=1;exitDx=0;exitDy=0;" parent="1" source="CKqWZd-cSWZV2FJ3GJAT-58" target="CKqWZd-cSWZV2FJ3GJAT-68" edge="1">
          <mxGeometry relative="1" as="geometry" />
        </mxCell>
        <mxCell id="CKqWZd-cSWZV2FJ3GJAT-58" value="&lt;font style=&quot;font-size: 15px;&quot;&gt;Dirección de E/S&lt;/font&gt;" style="rounded=0;whiteSpace=wrap;html=1;" parent="1" vertex="1">
          <mxGeometry x="75" y="290" width="120" height="40" as="geometry" />
        </mxCell>
        <mxCell id="CKqWZd-cSWZV2FJ3GJAT-68" value="&lt;ul style=&quot;font-size: 13px;&quot;&gt;&lt;li&gt;&lt;span style=&quot;&quot;&gt;Lectura&lt;/span&gt;&lt;/li&gt;&lt;li&gt;&lt;span style=&quot;&quot;&gt;Escritura&amp;nbsp;&lt;/span&gt;&lt;/li&gt;&lt;li&gt;&lt;span style=&quot;&quot;&gt;Lectura y Escritura&lt;/span&gt;&lt;/li&gt;&lt;/ul&gt;" style="rounded=0;whiteSpace=wrap;html=1;align=left;" parent="1" vertex="1">
          <mxGeometry x="57.5" y="370" width="155" height="60" as="geometry" />
        </mxCell>
        <mxCell id="CKqWZd-cSWZV2FJ3GJAT-52" value="&lt;font style=&quot;font-size: 14px;&quot;&gt;Velocidad de los disp.&lt;/font&gt;" style="rounded=0;whiteSpace=wrap;html=1;" parent="1" vertex="1">
          <mxGeometry x="550" y="290" width="120" height="40" as="geometry" />
        </mxCell>
        <mxCell id="CKqWZd-cSWZV2FJ3GJAT-72" style="edgeStyle=orthogonalEdgeStyle;rounded=0;orthogonalLoop=1;jettySize=auto;html=1;exitX=0.5;exitY=1;exitDx=0;exitDy=0;" parent="1" source="CKqWZd-cSWZV2FJ3GJAT-52" target="CKqWZd-cSWZV2FJ3GJAT-52" edge="1">
          <mxGeometry relative="1" as="geometry" />
        </mxCell>
        <mxCell id="X8Vde5-3q5NjhC1-RiLi-3" style="edgeStyle=orthogonalEdgeStyle;rounded=0;orthogonalLoop=1;jettySize=auto;html=1;exitX=1;exitY=0.5;exitDx=0;exitDy=0;" parent="1" source="X8Vde5-3q5NjhC1-RiLi-1" target="X8Vde5-3q5NjhC1-RiLi-2" edge="1">
          <mxGeometry relative="1" as="geometry" />
        </mxCell>
        <mxCell id="X8Vde5-3q5NjhC1-RiLi-5" style="edgeStyle=orthogonalEdgeStyle;rounded=0;orthogonalLoop=1;jettySize=auto;html=1;exitX=1;exitY=0.5;exitDx=0;exitDy=0;" parent="1" source="X8Vde5-3q5NjhC1-RiLi-1" target="X8Vde5-3q5NjhC1-RiLi-4" edge="1">
          <mxGeometry relative="1" as="geometry" />
        </mxCell>
        <mxCell id="y7UPAVZjWqUuUgM8Gh1U-9" style="edgeStyle=orthogonalEdgeStyle;rounded=0;orthogonalLoop=1;jettySize=auto;html=1;exitX=0.5;exitY=1;exitDx=0;exitDy=0;" edge="1" parent="1" source="X8Vde5-3q5NjhC1-RiLi-1" target="y7UPAVZjWqUuUgM8Gh1U-8">
          <mxGeometry relative="1" as="geometry" />
        </mxCell>
        <mxCell id="X8Vde5-3q5NjhC1-RiLi-1" value="&lt;font style=&quot;font-size: 14px;&quot;&gt;Unidad de E/S&lt;/font&gt;" style="rounded=0;whiteSpace=wrap;html=1;fillColor=#f8cecc;strokeColor=#b85450;" parent="1" vertex="1">
          <mxGeometry x="40" y="520" width="120" height="60" as="geometry" />
        </mxCell>
        <mxCell id="y7UPAVZjWqUuUgM8Gh1U-2" style="edgeStyle=orthogonalEdgeStyle;rounded=0;orthogonalLoop=1;jettySize=auto;html=1;exitX=1;exitY=0.5;exitDx=0;exitDy=0;" edge="1" parent="1" source="X8Vde5-3q5NjhC1-RiLi-2" target="y7UPAVZjWqUuUgM8Gh1U-1">
          <mxGeometry relative="1" as="geometry" />
        </mxCell>
        <mxCell id="X8Vde5-3q5NjhC1-RiLi-2" value="&lt;font style=&quot;font-size: 14px;&quot;&gt;&lt;u&gt;Componente electrónico&lt;/u&gt;: Controlador de dispositivo o adaptador&lt;/font&gt;" style="rounded=0;whiteSpace=wrap;html=1;" parent="1" vertex="1">
          <mxGeometry x="250" y="490" width="190" height="60" as="geometry" />
        </mxCell>
        <mxCell id="X8Vde5-3q5NjhC1-RiLi-4" value="&lt;font style=&quot;font-size: 14px;&quot;&gt;Componente mecánico&lt;/font&gt;" style="rounded=0;whiteSpace=wrap;html=1;" parent="1" vertex="1">
          <mxGeometry x="250" y="560" width="120" height="40" as="geometry" />
        </mxCell>
        <mxCell id="y7UPAVZjWqUuUgM8Gh1U-4" style="edgeStyle=orthogonalEdgeStyle;rounded=0;orthogonalLoop=1;jettySize=auto;html=1;exitX=0.5;exitY=1;exitDx=0;exitDy=0;" edge="1" parent="1" source="y7UPAVZjWqUuUgM8Gh1U-1" target="y7UPAVZjWqUuUgM8Gh1U-3">
          <mxGeometry relative="1" as="geometry" />
        </mxCell>
        <mxCell id="y7UPAVZjWqUuUgM8Gh1U-1" value="&lt;span style=&quot;font-size: 14px;&quot;&gt;Es una colección de componentes electrónicos que permite controlar un &lt;b&gt;dispositivo&lt;/b&gt;, puerto o bus.&lt;/span&gt;" style="rounded=0;whiteSpace=wrap;html=1;" vertex="1" parent="1">
          <mxGeometry x="490" y="490" width="230" height="60" as="geometry" />
        </mxCell>
        <mxCell id="y7UPAVZjWqUuUgM8Gh1U-3" value="&lt;span style=&quot;font-size: 14px;&quot;&gt;Tiene registro de estado, datos y comandos.&lt;/span&gt;" style="rounded=0;whiteSpace=wrap;html=1;" vertex="1" parent="1">
          <mxGeometry x="515" y="580" width="180" height="50" as="geometry" />
        </mxCell>
        <mxCell id="y7UPAVZjWqUuUgM8Gh1U-5" value="3 formas de &lt;font style=&quot;font-size: 15px;&quot;&gt;manejar los controladores&lt;/font&gt;" style="text;html=1;strokeColor=none;fillColor=none;align=center;verticalAlign=middle;whiteSpace=wrap;rounded=0;fontSize=15;fontStyle=5" vertex="1" parent="1">
          <mxGeometry x="40" y="700" width="290" height="30" as="geometry" />
        </mxCell>
        <mxCell id="y7UPAVZjWqUuUgM8Gh1U-8" value="&lt;font style=&quot;font-size: 14px;&quot;&gt;C/u tiene su puerto asignado&lt;/font&gt;" style="rounded=0;whiteSpace=wrap;html=1;fillColor=#f8cecc;strokeColor=#b85450;" vertex="1" parent="1">
          <mxGeometry x="40" y="610" width="120" height="50" as="geometry" />
        </mxCell>
        <mxCell id="y7UPAVZjWqUuUgM8Gh1U-10" value="Por asignación de memoria" style="rounded=0;whiteSpace=wrap;html=1;" vertex="1" parent="1">
          <mxGeometry x="40" y="870" width="120" height="60" as="geometry" />
        </mxCell>
        <mxCell id="y7UPAVZjWqUuUgM8Gh1U-11" value="" style="rounded=0;whiteSpace=wrap;html=1;" vertex="1" parent="1">
          <mxGeometry x="40" y="770" width="120" height="60" as="geometry" />
        </mxCell>
        <mxCell id="y7UPAVZjWqUuUgM8Gh1U-12" value="" style="rounded=0;whiteSpace=wrap;html=1;" vertex="1" parent="1">
          <mxGeometry x="40" y="960" width="120" height="60" as="geometry" />
        </mxCell>
        <mxCell id="y7UPAVZjWqUuUgM8Gh1U-13" value="Si se quiere acceder a un dispositivo e/s se requiere conocer el puerto que le corresponde. La información de los puertos se almacenaba en una memoria que no fuera la principal (por ej. una ROM).&lt;br&gt;Espacio separado de E/S y memoria." style="text;html=1;strokeColor=none;fillColor=none;align=center;verticalAlign=middle;whiteSpace=wrap;rounded=0;" vertex="1" parent="1">
          <mxGeometry x="207.5" y="761.25" width="487.5" height="77.5" as="geometry" />
        </mxCell>
        <mxCell id="y7UPAVZjWqUuUgM8Gh1U-14" value="C/ controlador tiene varios registros que se utilizan para comunicarse con la CPU. También posee un buffer.&amp;nbsp;" style="text;html=1;align=center;verticalAlign=middle;whiteSpace=wrap;rounded=0;strokeColor=default;" vertex="1" parent="1">
          <mxGeometry x="40" y="1080" width="350" height="40" as="geometry" />
        </mxCell>
      </root>
    </mxGraphModel>
  </diagram>
</mxfile>
